<svg width="100%" height="100%" id="svg" viewBox="0 0 1440 390" xmlns="http://www.w3.org/2000/svg" class="transition duration-300 ease-in-out delay-150"><path d="M 0,400 L 0,100 C 91.14832535885165,75.47368421052632 182.2966507177033,50.94736842105264 273,54 C 363.7033492822967,57.05263157894736 453.9617224880384,87.68421052631578 545,99 C 636.0382775119616,110.31578947368422 727.8564593301437,102.31578947368422 839,91 C 950.1435406698563,79.68421052631578 1080.6124401913876,65.05263157894737 1184,66 C 1287.3875598086124,66.94736842105263 1363.6937799043062,83.47368421052632 1440,100 L 1440,400 L 0,400 Z" stroke="none" stroke-width="0" fill="#ffffff" fill-opacity="0.53" class="transition-all duration-300 ease-in-out delay-150 path-0" transform="rotate(-180 720 200)"></path><path d="M 0,400 L 0,233 C 93.25358851674642,224.13875598086122 186.50717703349284,215.27751196172247 297,208 C 407.49282296650716,200.72248803827753 535.2248803827753,195.0287081339713 626,194 C 716.7751196172247,192.9712918660287 770.5933014354066,196.60765550239236 858,196 C 945.4066985645934,195.39234449760764 1066.4019138755982,190.54066985645935 1169,196 C 1271.5980861244018,201.45933014354065 1355.7990430622008,217.22966507177034 1440,233 L 1440,400 L 0,400 Z" stroke="none" stroke-width="0" fill="#ffffff" fill-opacity="1" class="transition-all duration-300 ease-in-out delay-150 path-1" transform="rotate(-180 720 200)"></path></svg>