<svg width="71" height="57" viewBox="0 0 71 57" fill="none" xmlns="http://www.w3.org/2000/svg">
<path d="M31.6076 17.3199C29.2517 15.6394 25.8489 15.8881 23.1606 16.4194C21.4121 16.7623 17.6218 18.1339 18.5301 20.5474C19.4724 23.055 24.0873 22.3928 25.9326 22.1231C28.2335 21.7855 32.3981 20.8144 31.8013 17.5712C31.7044 17.0398 30.8982 17.2649 30.9924 17.7937C31.5212 20.6573 26.8566 21.1782 25.0557 21.3876C24.1501 21.4923 23.2313 21.5551 22.323 21.5525C20.6949 21.542 18.0459 19.9479 20.7001 18.1994C23.3334 16.4639 28.5843 16.1865 31.1861 18.0423C31.6259 18.3564 32.0447 17.6288 31.6076 17.3199Z" fill="currentColor"/>
<path d="M18.4987 19.7382C17.9123 25.1618 17.5721 41.3699 27.2048 39.2837C35.547 37.4801 32.5289 23.2929 31.8169 17.6808C31.7489 17.152 30.9113 17.1468 30.9793 17.6808C31.6625 23.0782 34.1937 33.7501 28.8434 37.8021C27.0111 39.1868 23.8569 38.5769 22.2052 37.2786C20.7812 36.1609 20.3912 34.059 20.0745 32.3942C19.2997 28.3134 18.8913 23.8687 19.3363 19.7382C19.3939 19.2016 18.5563 19.2094 18.4987 19.7382Z" fill="currentColor"/>
<path d="M21.4178 24.2059C22.2136 28.4674 21.5958 34.0611 25.7421 36.7389C26.1975 37.0347 26.6163 36.3097 26.1661 36.0165C22.3078 33.5245 22.9648 27.9517 22.224 23.9835C22.1272 23.4521 21.3184 23.6772 21.4178 24.2059ZM27.8518 36.3515C28.3937 36.3515 28.3937 35.5139 27.8518 35.5139C27.3126 35.5139 27.3126 36.3515 27.8518 36.3515ZM25.9803 39.6157C26.3336 43.9111 26.3808 48.2197 26.7525 52.5151C26.9435 54.7165 22.423 53.1616 21.3236 55.0411C19.6536 57.889 29.2837 56.2766 30.3098 56.1352C31.2992 55.9991 34.032 55.4808 34.4194 54.3003C34.99 52.5413 30.5872 53.0491 30.0218 53.0622C29.1816 53.0831 29.4486 53.0151 29.3308 51.8633C29.179 50.353 29.0219 48.84 28.8622 47.3297C28.556 44.4608 28.3178 41.5527 27.7995 38.7126C27.7 38.1812 26.8938 38.4063 26.9907 38.9351C27.8675 43.7253 28.1764 48.662 28.6581 53.5045C28.6816 53.727 28.8334 53.9286 29.0769 53.9234C30.0009 53.8998 30.9249 53.8815 31.8489 53.8789C34.4167 53.8684 32.5007 54.6929 31.2704 55.0777C29.815 55.5306 28.1712 55.4939 26.6608 55.6274C25.8834 55.6955 22.6429 55.3971 22.1167 56.0279C22.2319 55.8892 22.2947 55.6824 22.1822 55.5201C21.9649 55.2034 26.9435 54.2741 27.4042 54.2034C27.5744 54.1773 27.7288 53.9679 27.7131 53.8003C27.2603 49.0782 27.2079 44.3404 26.8179 39.6157C26.776 39.0817 25.9384 39.0764 25.9803 39.6157ZM21.1142 48.2537C16.235 43.008 11.348 37.6577 9.38219 30.5981C7.23053 22.8762 8.52362 16.1386 11.1674 8.79363C11.3532 8.2832 10.5418 8.06594 10.3612 8.57113C7.61532 16.1935 6.58137 22.837 8.57335 30.8206C10.3612 37.9901 15.6304 43.5865 20.52 48.8479C20.8891 49.2431 21.4806 48.6489 21.1142 48.2537Z" fill="currentColor"/>
<path d="M11.1829 8.90686C11.1305 6.78662 10.7824 4.88364 11.8896 2.96757C12.3189 2.21894 12.8895 1.54622 13.6094 1.0672C14.7061 0.339515 15.795 1.4991 15.8867 2.56969C16.1013 5.06948 12.2534 7.12429 10.8033 8.72101C10.4421 9.11888 11.031 9.71307 11.3949 9.31258C13.2874 7.22637 18.8314 3.98581 15.8631 0.6798C14.5517 -0.78081 12.8319 0.394483 11.8503 1.56454C9.95259 3.82352 10.2772 6.12437 10.3452 8.90686C10.3609 9.44608 11.1986 9.44608 11.1829 8.90686ZM9.11497 17.3826C10.607 14.7467 13.4261 9.90939 17.2635 10.5978C18.8157 10.8779 17.2897 13.4667 16.8421 14.019C16.1955 14.8226 15.2951 15.3906 14.4077 15.888C12.6958 16.8512 10.607 17.3878 8.64119 17.3093C8.10196 17.2884 8.10458 18.126 8.64119 18.1469C11.2535 18.2516 13.8868 17.3329 16.028 15.8696C17.363 14.9535 19.6664 12.383 18.4859 10.5664C17.4886 9.03512 15.3658 9.91986 14.0596 10.5219C11.3321 11.781 9.81386 14.443 8.39252 16.9585C8.12552 17.4297 8.85059 17.8511 9.11497 17.3826ZM7.86115 25.5756C5.69379 25.3662 3.67825 23.2669 2.37208 21.6911C1.55539 20.7043 0.832938 19.4636 0.817233 18.1548C0.806763 17.1104 1.70721 16.189 2.66786 16.7858C4.12847 17.6941 4.99489 19.9216 5.68855 21.4084C6.36389 22.8612 6.94761 24.3637 7.45804 25.8819C7.62818 26.3897 8.43701 26.1724 8.26425 25.6594C7.51301 23.4187 6.60471 21.2095 5.48438 19.1311C4.79858 17.859 3.26467 15.0425 1.39572 15.8304C-1.02031 16.846 0.22566 20.0447 1.23081 21.555C2.62075 23.636 5.23309 26.1593 7.86115 26.4132C8.40037 26.463 8.39513 25.6254 7.86115 25.5756ZM10.7353 33.588C10.7143 30.7008 10.1384 25.5049 13.6381 24.2145C14.96 23.7276 14.9679 26.1724 14.96 26.8268C14.9417 27.9786 14.4103 29.0832 13.858 30.0622C12.934 31.6955 11.5048 33.041 10.1332 34.2974C9.73534 34.6612 10.3295 35.2528 10.7248 34.889C12.7272 33.0593 14.5909 31.0752 15.4966 28.468C15.994 27.0467 16.172 24.17 14.4732 23.4318C13.1722 22.8664 11.8373 24.3637 11.175 25.2641C9.47619 27.5728 9.87668 30.9155 9.89763 33.588C9.90286 34.1273 10.7405 34.1273 10.7353 33.588ZM12.4393 38.5274C10.1751 38.2316 7.49207 38.0981 5.60479 39.5771C4.60749 40.3597 3.50287 42.0952 4.22009 43.383C5.12054 45.0085 7.55751 44.5924 8.98147 44.0715C11.1514 43.2809 12.7089 41.3413 12.9707 39.0588C13.0335 38.5222 12.1932 38.53 12.133 39.0588C11.9079 41.0115 10.5311 42.5192 8.75898 43.2652C7.79309 43.671 5.02631 44.2625 4.85354 42.5951C4.74099 41.4722 5.78017 40.4121 6.63612 39.8624C8.19358 38.8598 10.6908 39.1373 12.4393 39.365C12.9759 39.4357 12.968 38.5955 12.4393 38.5274Z" fill="currentColor"/>
<path d="M11.3007 8.12393C11.5493 5.42782 13.7193 2.91232 15.5961 1.11666C15.7846 0.938667 15.5019 0.655969 15.3134 0.833964C13.345 2.71339 11.1593 5.30741 10.8975 8.12393C10.874 8.38045 11.2771 8.38045 11.3007 8.12393ZM0.874826 16.8248C1.92186 18.4974 3.30656 19.8926 4.46615 21.4815C5.53936 22.9552 6.24872 24.6618 7.60725 25.9104C7.79833 26.0858 8.08365 25.8031 7.89256 25.6277C6.58377 24.4262 5.78541 22.7484 4.81429 21.2799C3.72799 19.6413 2.27 18.2959 1.22296 16.6206C1.08423 16.4033 0.736094 16.6049 0.874826 16.8248ZM9.30344 17.4556C12.6697 15.9688 15.2689 13.3041 18.2372 11.2022C18.4467 11.053 18.2477 10.7022 18.0331 10.8541C15.0674 12.9586 12.4655 15.6207 9.09927 17.1075C8.86369 17.2122 9.06786 17.5603 9.30344 17.4556ZM14.0256 24.0938C13.7429 27.8108 11.3792 30.999 10.1254 34.428C10.0337 34.6714 10.4238 34.7762 10.5128 34.5353C11.7797 31.0723 14.1407 27.8579 14.4287 24.0938C14.447 23.8347 14.0465 23.8373 14.0256 24.0938ZM4.56823 42.8252C7.25126 43.6445 11.0023 40.9536 12.6932 39.0873C12.8686 38.8962 12.5833 38.6109 12.4105 38.8046C10.8295 40.5453 7.17011 43.1995 4.67556 42.4378C4.42688 42.3619 4.32218 42.7493 4.56823 42.8252ZM39.5915 18.0419C42.285 16.1233 46.8527 16.6756 49.6927 17.9896C51.0801 18.6309 51.5172 20.6726 49.8917 21.2799C48.7949 21.6882 47.6144 21.539 46.481 21.4579C44.6277 21.3244 39.2172 20.8768 39.7826 17.7907C39.8794 17.2645 39.0732 17.0394 38.9763 17.5682C38.3795 20.814 42.5415 21.7851 44.845 22.1228C46.6904 22.3924 51.3025 23.0546 52.2475 20.547C53.1715 18.0891 49.3446 16.83 47.617 16.419C44.9942 15.7934 41.4657 15.6835 39.1674 17.3195C38.7329 17.6284 39.1491 18.3561 39.5915 18.0419Z" fill="currentColor"/>
<path d="M51.4412 19.7382C51.9909 24.8425 51.8182 43.2336 41.9342 37.8021C39.1307 36.2604 39.0522 31.3995 38.7643 28.6746C38.3847 25.0597 39.3454 21.2511 39.7982 17.6808C39.8663 17.1468 39.0287 17.152 38.9606 17.6808C38.2486 23.2929 35.2305 37.4801 43.5728 39.2837C53.2029 41.3699 52.8652 25.1618 52.2789 19.7382C52.2213 19.2094 51.381 19.2016 51.4412 19.7382Z" fill="currentColor"/>
<path d="M48.5516 23.9835C47.8135 27.9517 48.4679 33.5245 44.6122 36.0165C44.1593 36.3097 44.5808 37.0347 45.0336 36.7389C49.1799 34.0611 48.5647 28.4674 49.3605 24.2059C49.4599 23.6772 48.6511 23.4521 48.5516 23.9835ZM42.9265 36.3515C43.4657 36.3515 43.4657 35.5139 42.9265 35.5139C42.3846 35.5139 42.3846 36.3515 42.9265 36.3515ZM43.9578 39.6157C43.5704 44.3404 43.518 49.0782 43.0652 53.8003C43.0495 53.9679 43.2013 54.1773 43.3714 54.2034C43.8348 54.2741 48.8134 55.2034 48.5935 55.5201C48.481 55.6824 48.5464 55.8892 48.659 56.0279C48.2087 55.4861 45.6514 55.7478 45.0048 55.7007C43.3453 55.5803 41.581 55.541 39.9529 55.1955C39.4346 55.0856 36.3746 54.138 38.0787 53.9207C39.2645 53.7663 40.5052 53.8946 41.7014 53.9234C41.9449 53.9286 42.0967 53.727 42.1202 53.5045C42.6019 48.662 42.9107 43.7253 43.7876 38.9351C43.8845 38.4063 43.0783 38.1812 42.9788 38.7126C42.5024 41.3092 42.2825 43.9608 41.9972 46.5837C41.8244 48.1673 41.6622 49.7509 41.4999 51.3372C41.4528 51.8031 41.4056 52.2717 41.3585 52.7376C41.2748 53.5517 41.424 53.0779 40.8612 53.0648C40.2644 53.0517 36.2856 52.523 36.2856 54.0045C36.2856 55.3238 39.2566 55.9023 40.1335 56.0881C42.7615 56.6483 46.3057 57.0173 48.9757 56.5671C49.6929 56.4493 49.5542 55.5201 49.4992 55.1405C49.2924 53.7427 44.9237 53.5935 43.9709 53.4548C43.9211 53.447 44.6855 40.9532 44.7954 39.6157C44.8399 39.0764 44.0023 39.0817 43.9578 39.6157ZM50.2583 48.8479C55.2343 43.4949 60.1999 38.0189 62.2023 30.8206C64.3906 22.9678 63.1132 16.06 60.4171 8.57113C60.2365 8.06594 59.4251 8.2832 59.6083 8.79363C62.3018 16.2668 63.3541 22.748 61.3961 30.5981C59.6423 37.6341 54.4621 43.0944 49.6641 48.2537C49.2976 48.6489 49.8892 49.2431 50.2583 48.8479Z" fill="currentColor"/>
<path d="M60.4325 8.90608C60.5006 6.0791 60.7676 3.98765 58.9929 1.64753C57.9563 0.281151 56.3596 -0.637621 54.9147 0.679023C51.6558 3.64736 57.7286 7.48997 59.3803 9.31181C59.7441 9.7123 60.3357 9.11811 59.9744 8.72024C58.3542 6.93504 55.001 5.25979 54.8885 2.56892C54.8414 1.36745 56.1345 0.529821 57.1684 1.06643C57.917 1.45383 58.4536 2.27575 58.8881 2.96679C60.0556 4.81742 59.6446 6.83296 59.5949 8.90608C59.5792 9.44531 60.4168 9.44531 60.4325 8.90608ZM62.3852 16.9578C61.0032 14.5156 59.5687 12.0341 57.027 10.6756C55.9512 10.0997 53.3598 8.92179 52.428 10.3536C51.2527 12.1624 52.9698 14.5156 54.3859 15.5914C56.5637 17.2457 59.3855 18.2561 62.1339 18.1461C62.6732 18.1252 62.6758 17.2876 62.1339 17.3085C59.0583 17.4315 52.2159 15.3192 52.9567 11.1494C53.2499 9.50551 56.7705 11.4687 57.4249 11.8666C59.3829 13.0628 60.566 15.4422 61.6602 17.3818C61.9272 17.8504 62.6496 17.4289 62.3852 16.9578ZM62.9166 26.4125C65.6101 26.1507 68.0575 23.6143 69.5443 21.5542C70.6149 20.0727 71.7536 16.8269 69.382 15.8296C67.5 15.0365 65.9975 17.8687 65.2934 19.1304C64.1443 21.1852 63.2621 23.4284 62.5109 25.6586C62.3407 26.1717 63.1496 26.3889 63.3197 25.8811C63.7961 24.4702 64.3432 23.0829 64.9479 21.7218C65.6939 20.0413 66.5865 17.9106 68.1099 16.785C68.937 16.1725 69.6045 16.9028 69.8846 17.6959C70.293 18.8529 69.4344 20.2167 68.8219 21.1328C67.6152 22.9442 65.2122 25.3524 62.9166 25.5748C62.3826 25.6246 62.3774 26.4622 62.9166 26.4125ZM60.8775 33.5873C60.8985 30.8912 61.1707 28.0171 59.8017 25.5748C59.1447 24.4022 57.8516 23.1248 56.4041 23.3892C54.6529 23.7085 54.9277 26.813 55.1424 27.9673C55.6659 30.755 58.0531 33.0611 60.0504 34.8882C60.4482 35.252 61.0424 34.6605 60.6445 34.2966C59.375 33.137 58.1866 31.9303 57.205 30.5142C56.2627 29.1557 54.7236 25.5853 56.5061 24.2504C57.7416 23.3237 59.3829 26.4831 59.608 27.2213C60.2414 29.2866 60.0582 31.4566 60.0399 33.5873C60.0346 34.1265 60.8723 34.1265 60.8775 33.5873ZM58.3385 39.3643C60.0818 39.1365 62.3407 38.9271 63.9558 39.7543C64.9688 40.2752 65.9425 41.4034 65.9216 42.5944C65.898 44.2016 63.1548 43.6335 62.3041 43.3692C60.3906 42.7724 58.8751 41.0526 58.6447 39.058C58.5819 38.5293 57.7443 38.5214 57.8071 39.058C58.0584 41.2437 59.4797 43.0969 61.5162 43.9529C62.9663 44.5628 65.6049 45.0968 66.5577 43.3823C67.2592 42.1258 66.2252 40.5527 65.3326 39.715C63.5448 38.0345 60.5843 38.2335 58.3385 38.5266C57.8097 38.5947 57.8019 39.4349 58.3385 39.3643Z" fill="currentColor"/>
<path d="M59.8776 8.12393C59.6159 5.30741 57.4328 2.71339 55.4644 0.833964C55.2759 0.655969 54.9932 0.938667 55.1791 1.11666C57.0559 2.91232 59.2259 5.42782 59.4771 8.12393C59.5007 8.38045 59.9012 8.38045 59.8776 8.12393ZM69.5548 16.6206C68.6073 18.1336 67.3508 19.3769 66.3038 20.814C65.1521 22.3924 64.338 24.2927 62.8852 25.6277C62.6942 25.8031 62.9795 26.0858 63.1706 25.9104C64.3877 24.7927 65.0709 23.3111 65.9949 21.9631C67.2147 20.1805 68.7565 18.6571 69.903 16.8248C70.0417 16.6049 69.691 16.4033 69.5548 16.6206ZM61.6759 17.1075C58.3123 15.6207 55.7104 12.9586 52.7421 10.8541C52.5301 10.7023 52.3311 11.053 52.5405 11.1996C55.5063 13.3041 58.1082 15.9688 61.4744 17.4556C61.7099 17.5577 61.9141 17.2122 61.6759 17.1075ZM56.3491 24.0938C56.6371 27.8579 58.9955 31.0723 60.265 34.5353C60.354 34.7762 60.7441 34.6715 60.6524 34.428C59.3986 30.999 57.0349 27.8108 56.7522 24.0938C56.7313 23.8373 56.3308 23.8347 56.3491 24.0938ZM66.1023 42.4378C63.6051 43.1995 59.9457 40.5453 58.3673 38.8046C58.1919 38.6109 57.9092 38.8962 58.082 39.0873C59.7755 40.9537 63.5265 43.6445 66.2096 42.8252C66.4556 42.7493 66.3509 42.3619 66.1023 42.4378Z" fill="currentColor"/>
</svg>
